<svg width="24" height="24" viewBox="0 0 24 24" fill="none" xmlns="http://www.w3.org/2000/svg">
<g opacity="0.24">
<path d="M22 9.55555C22 8.45098 21.1046 7.55556 20 7.55556H17.3333C16.2288 7.55556 15.3333 8.45099 15.3333 9.55556V22H20C21.1046 22 22 21.1046 22 20V9.55555Z" fill="white"/>
<path d="M8.66667 15.1111C8.66667 14.0065 7.77124 13.1111 6.66667 13.1111H4C2.89543 13.1111 2 14.0065 2 15.1111V20C2 21.1046 2.89543 22 4 22H8.66667V15.1111Z" fill="white"/>
</g>
<path d="M8.66667 22V4C8.66667 2.89543 9.5621 2 10.6667 2H13.3333C14.4379 2 15.3333 2.89543 15.3333 4V22M8.66667 22H15.3333M8.66667 22H4C2.89543 22 2 21.1046 2 20V15.1111C2 14.0065 2.89543 13.1111 4 13.1111H6.66667C7.77124 13.1111 8.66667 14.0065 8.66667 15.1111V22ZM15.3333 22V9.55556C15.3333 8.45099 16.2288 7.55556 17.3333 7.55556H20C21.1046 7.55556 22 8.45098 22 9.55555V20C22 21.1046 21.1046 22 20 22H15.3333Z" stroke="white" stroke-width="2" stroke-linecap="round" stroke-linejoin="round"/>
</svg>
